<svg width="82" height="37" viewBox="0 0 82 37" fill="none" xmlns="http://www.w3.org/2000/svg">
<path d="M13.9012 9.208C14.2612 9.856 14.4772 10.624 14.4772 11.44C14.4772 12.232 14.2612 13 13.9012 13.648C13.1092 15.064 11.6212 16 9.89318 16C9.70118 16 9.48518 16 9.29318 15.976C9.10118 16 8.90918 16 8.69318 16H0.245178V3.544H2.54918V6.832H9.07718C10.1572 6.64 10.9732 5.704 10.9732 4.576C10.9732 3.496 10.2052 2.584 9.19718 2.368H0.245178V0.0159988H8.69318C10.3972 0.0159988 11.8852 0.927998 12.6772 2.32C12.6772 2.32 12.7012 2.344 12.7012 2.368C13.0612 3.016 13.2772 3.784 13.2772 4.576C13.2772 5.392 13.0612 6.16 12.7012 6.832C12.6772 6.832 12.6772 6.856 12.6772 6.856C12.5332 7.096 12.3892 7.312 12.2212 7.504C12.4852 7.648 12.7252 7.816 12.9412 8.008C13.3252 8.344 13.6372 8.752 13.9012 9.208ZM10.3732 13.648C11.4052 13.432 12.1732 12.52 12.1732 11.44C12.1732 10.336 11.3812 9.4 10.3252 9.208H2.54918V13.648H10.3732ZM14.4138 16L21.0138 4.12L22.5258 6.88L17.4618 16H14.4138ZM24.8058 2.752L32.1258 16H29.1018L23.2698 5.488L21.7578 2.752L23.2698 0.0159988L24.8058 2.752ZM33.3858 16V4.912L35.6898 7.216V16H33.3858ZM43.7538 0.0639982H46.0338V15.928L43.7538 13.648L35.6898 5.584L33.3858 3.28V0.0399985L43.7538 10.384V0.0639982ZM55.7919 13.72C58.0719 13.72 60.0159 12.4 60.9279 10.48H63.4239C62.3679 13.696 59.3679 16 55.7919 16C51.7839 16 48.4479 13.048 47.8959 9.184C47.8239 8.8 47.7999 8.416 47.7999 8.008C47.7999 7.624 47.8239 7.264 47.8719 6.88C48.4239 2.992 51.7599 0.0159988 55.7919 0.0159988C59.4399 0.0159988 62.5359 2.44 63.4959 5.776H61.0479C60.1839 3.736 58.1679 2.32 55.7919 2.32C53.0559 2.32 50.7279 4.288 50.2239 6.88C50.1519 7.24 50.1039 7.624 50.1039 8.008C50.1039 8.416 50.1519 8.8 50.2239 9.184C50.7759 11.776 53.0559 13.72 55.7919 13.72ZM73.7684 2.344C70.6244 2.344 68.0804 4.912 68.0804 8.032C68.0804 11.176 70.6244 13.72 73.7684 13.72C76.8884 13.72 79.4324 11.176 79.4324 8.032C79.4324 4.912 76.8884 2.344 73.7684 2.344ZM65.7764 8.032C65.7764 3.616 69.3524 0.0639982 73.7684 0.0639982C78.1604 0.0639982 81.7364 3.616 81.7364 8.032C81.7364 12.448 78.1604 16 73.7684 16C69.3524 16 65.7764 12.448 65.7764 8.032ZM25.7201 28.744L31.8161 37H28.9601L24.3041 30.688L22.8641 28.768V28.744L22.6721 28.48L17.2001 21.064H20.0561L24.0881 26.536L24.3041 26.824L24.5201 26.536L28.5281 21.064H31.3841L25.9361 28.48L25.7201 28.744ZM16.7921 37L22.1681 29.728L23.5841 31.672L19.6481 37H16.7921ZM45.8009 21.016H48.6569L42.9689 28.792L42.8009 29.008V29.032L42.5849 29.32L42.5129 29.392V37H40.2329V29.416L40.1609 29.32L39.9449 29.032V29.008L39.7769 28.792L34.0889 21.016H36.9449L41.3609 27.088V27.064L45.8009 21.016ZM50.9405 36.664L52.3565 34.72H65.1725V37H50.9405V36.664ZM53.1965 33.568L60.6365 23.368H50.9405V21.064H65.1725L63.4925 23.368L56.0525 33.568H53.1965Z" fill="#B8EBFD"/>
</svg>
